<?xml version="1.0" encoding="utf-8"?>
<!-- Generator: Adobe Illustrator 18.0.0, SVG Export Plug-In . SVG Version: 6.00 Build 0)  -->
<!DOCTYPE svg PUBLIC "-//W3C//DTD SVG 1.1//EN" "http://www.w3.org/Graphics/SVG/1.1/DTD/svg11.dtd">
<svg version="1.1" id="Layer_1" xmlns="http://www.w3.org/2000/svg" xmlns:xlink="http://www.w3.org/1999/xlink" x="0px" y="0px"
	 viewBox="0 0 82.8 9.5" enable-background="new 0 0 82.8 9.5" xml:space="preserve">
<g>
	<path fill="#FFFFFF" d="M47,0c-0.8,0-1.6,0.5-1.9,1.1c-0.4,0.6-1.4,2.4-1.8,3.1c-0.4,0.6,0.1,1.3,0.8,1.3c0.7,0,6.1,0,6.1,0
		s-0.9,1.6-1.1,1.9c-0.2,0.3-0.5,0.5-0.8,0.5c-0.3,0-0.6,0-1,0c-0.3,0-0.4-0.3-0.3-0.6c0.1-0.2,0.4-0.6,0.4-0.6h-5.6
		c0,0-0.4,0.7-0.8,1.4c-0.4,0.7,0.1,1.4,0.8,1.4c0.6,0,9.6,0,10.4,0c0.8,0,1.6-0.5,2-1.1c0.4-0.7,1.3-2.3,1.7-3S55.7,4,55.1,4
		C54.5,4,49,4,49,4s1-1.7,1.1-2c0.1-0.2,0.4-0.4,0.8-0.4c0.3,0,0.6,0,1,0c0.3,0,0.4,0.3,0.3,0.5c-0.1,0.2-0.4,0.7-0.4,0.7h5.6
		c0,0,0.5-0.9,0.8-1.4C58.5,0.8,58.1,0,57.4,0C56.7,0,47.8,0,47,0z"/>
	<path fill="#FFFFFF" d="M42.6,0c-0.7,0-9.6,0-10.4,0c-0.8,0-1.5,0.4-1.9,1.1c-0.4,0.7-3.7,6.4-4.1,7c-0.4,0.6,0.1,1.3,0.8,1.3
		c0.6,0,9.6,0,10.4,0c0.8,0,1.6-0.5,1.9-1.1c0.4-0.6,3.7-6.4,4.1-7C43.7,0.8,43.2,0,42.6,0z M37.3,2.2c-0.2,0.3-2.9,5-3.1,5.3
		c-0.2,0.3-0.5,0.4-0.8,0.4c-0.3,0-0.7,0-1,0c-0.3,0-0.5-0.3-0.3-0.5c0.1-0.2,2.9-5,3.1-5.3c0.2-0.3,0.5-0.4,0.8-0.4
		c0.3,0,0.7,0,1,0C37.3,1.6,37.5,1.9,37.3,2.2z"/>
	<path fill="#FFFFFF" d="M27.8,0C27.1,0,16,0,16,0l-4.6,7.9l-10.5,0v1.6c0,0,20.8,0,21.6,0c0.8,0,1.5-0.4,1.9-1.1
		c0.4-0.7,1.1-1.8,1.3-2.3c0.3-0.5,0-1.1-0.5-1.3c0.8,0,1.5-0.5,1.9-1.1c0.4-0.6,1-1.7,1.3-2.3C28.9,0.8,28.4,0,27.8,0z M21.5,6.1
		c-0.1,0.2-0.6,1.1-0.8,1.4c-0.2,0.3-0.5,0.4-0.8,0.4c-0.3,0-2.9,0-2.9,0l1.4-2.4c0,0,2.5,0,2.8,0C21.5,5.6,21.7,5.9,21.5,6.1z
		 M23.8,2.2c-0.1,0.2-0.6,1.1-0.8,1.4C22.8,3.9,22.5,4,22.2,4c-0.3,0-2.9,0-2.9,0l1.4-2.4c0,0,2.5,0,2.8,0
		C23.8,1.6,23.9,1.9,23.8,2.2z"/>
	<polygon fill="#FFFFFF" points="60.5,0 55,9.5 68.2,9.5 69.2,7.9 61.5,7.9 62.8,5.6 70.5,5.6 71.4,4 63.8,4 65.1,1.6 79.5,1.6 
		79.5,0 	"/>
	<g>
		<path fill="#FFFFFF" d="M81,0c0.5,0,0.8,0.4,0.8,0.8c0,0.5-0.4,0.8-0.8,0.8c-0.5,0-0.8-0.3-0.8-0.8C80.2,0.4,80.5,0,81,0z M81,1.5
			c0.4,0,0.7-0.3,0.7-0.7c0-0.4-0.3-0.7-0.7-0.7c-0.4,0-0.7,0.3-0.7,0.7C80.3,1.2,80.6,1.5,81,1.5z M81.2,0.9l0.2,0.4h-0.2L81,0.9
			h-0.1v0.3h-0.2V0.4h0.4c0.2,0,0.3,0.1,0.3,0.3v0C81.4,0.8,81.3,0.9,81.2,0.9z M80.9,0.8h0.2c0.1,0,0.1,0,0.1-0.1v0
			c0-0.1-0.1-0.1-0.1-0.1h-0.2V0.8z"/>
	</g>
</g>
</svg>
