<svg xmlns="http://www.w3.org/2000/svg" xmlns:xlink="http://www.w3.org/1999/xlink" xml:space="preserve" version="1.1" style="shape-rendering:geometricPrecision;text-rendering:geometricPrecision;image-rendering:optimizeQuality;" viewBox="0 0 334 696.25" x="0px" y="0px" fill-rule="evenodd" clip-rule="evenodd"><defs><style type="text/css">
   
    .fil0 {fill:black}
   
  </style></defs><g><path class="fil0" d="M327 395l-139 -118 138 -115c11,-9 11,-25 0,-34l-146 -123c-15,-12 -37,-2 -37,18l0 215 -94 -79c-47,-39 -71,-14 -22,26l106 91 -106 88c-45,37 -24,64 22,27l94 -78 0 222c0,19 22,29 37,17l146 -123c11,-8 11,-25 1,-34zm-149 -346l115 96 -115 95 0 -191zm0 459l0 -194 115 98 -115 96z"/></g><text x="0" y="572" fill="#000000" font-size="5px" font-weight="bold" font-family="'Helvetica Neue', Helvetica, Arial-Unicode, Arial, Sans-serif">Created by alfarizki</text><text x="0" y="577" fill="#000000" font-size="5px" font-weight="bold" font-family="'Helvetica Neue', Helvetica, Arial-Unicode, Arial, Sans-serif">from the Noun Project</text></svg>