<svg xmlns="http://www.w3.org/2000/svg" data-name="Layer 1" viewBox="0 0 100 125" x="0px" y="0px"><title>08</title><g data-name="Group"><polygon data-name="Path" points="87.72 37 78.97 45.74 70.23 37 65.98 41.24 74.73 49.98 65.98 58.73 70.23 62.97 78.97 54.23 87.72 62.97 91.96 58.73 83.21 49.98 91.96 41.24 87.72 37"/><path data-name="Path" d="M11.24,29.52A3.2,3.2,0,0,0,8,32.73c0,2.69,0,32.53,0,35.21a3.2,3.2,0,0,0,3.2,3.19H28.78L60.67,90V10L28.75,29.52Z"/></g><text x="0" y="115" fill="#000000" font-size="5px" font-weight="bold" font-family="'Helvetica Neue', Helvetica, Arial-Unicode, Arial, Sans-serif">Created by Bhuvan</text><text x="0" y="120" fill="#000000" font-size="5px" font-weight="bold" font-family="'Helvetica Neue', Helvetica, Arial-Unicode, Arial, Sans-serif">from the Noun Project</text></svg>